<svg xmlns="http://www.w3.org/2000/svg" xmlns:xlink="http://www.w3.org/1999/xlink" width="905" height="1080" viewBox="0 0 905 1080">
  <defs>
    <clipPath id="clip-path">
      <rect width="109" height="251" fill="none"/>
    </clipPath>
  </defs>
  <g id="bG" transform="translate(-960)">
    <rect id="Rectangle_122" data-name="Rectangle 122" width="905" height="1080" transform="translate(960)" fill="#fd9697"/>
    <g id="Pattern" transform="translate(-81 -237)">
      <g id="Pattern-2" data-name="Pattern" transform="translate(1811 274)">
        <g id="Repeat_Grid_1" data-name="Repeat Grid 1" clip-path="url(#clip-path)">
          <g transform="translate(-1801 -93)">
            <circle id="Ellipse_1" data-name="Ellipse 1" cx="4" cy="4" r="4" transform="translate(1801 93)" fill="#f8dbd4"/>
          </g>
          <g transform="translate(-1753 -93)">
            <circle id="Ellipse_1-2" data-name="Ellipse 1" cx="4" cy="4" r="4" transform="translate(1801 93)" fill="#f8dbd4"/>
          </g>
          <g transform="translate(-1705 -93)">
            <circle id="Ellipse_1-3" data-name="Ellipse 1" cx="4" cy="4" r="4" transform="translate(1801 93)" fill="#f8dbd4"/>
          </g>
          <g transform="translate(-1801 -45)">
            <circle id="Ellipse_1-4" data-name="Ellipse 1" cx="4" cy="4" r="4" transform="translate(1801 93)" fill="#f8dbd4"/>
          </g>
          <g transform="translate(-1753 -45)">
            <circle id="Ellipse_1-5" data-name="Ellipse 1" cx="4" cy="4" r="4" transform="translate(1801 93)" fill="#f8dbd4"/>
          </g>
          <g transform="translate(-1705 -45)">
            <circle id="Ellipse_1-6" data-name="Ellipse 1" cx="4" cy="4" r="4" transform="translate(1801 93)" fill="#f8dbd4"/>
          </g>
          <g transform="translate(-1801 3)">
            <circle id="Ellipse_1-7" data-name="Ellipse 1" cx="4" cy="4" r="4" transform="translate(1801 93)" fill="#f8dbd4"/>
          </g>
          <g transform="translate(-1753 3)">
            <circle id="Ellipse_1-8" data-name="Ellipse 1" cx="4" cy="4" r="4" transform="translate(1801 93)" fill="#f8dbd4"/>
          </g>
          <g transform="translate(-1705 3)">
            <circle id="Ellipse_1-9" data-name="Ellipse 1" cx="4" cy="4" r="4" transform="translate(1801 93)" fill="#f8dbd4"/>
          </g>
          <g transform="translate(-1801 51)">
            <circle id="Ellipse_1-10" data-name="Ellipse 1" cx="4" cy="4" r="4" transform="translate(1801 93)" fill="#f8dbd4"/>
          </g>
          <g transform="translate(-1753 51)">
            <circle id="Ellipse_1-11" data-name="Ellipse 1" cx="4" cy="4" r="4" transform="translate(1801 93)" fill="#f8dbd4"/>
          </g>
          <g transform="translate(-1705 51)">
            <circle id="Ellipse_1-12" data-name="Ellipse 1" cx="4" cy="4" r="4" transform="translate(1801 93)" fill="#f8dbd4"/>
          </g>
          <g transform="translate(-1801 99)">
            <circle id="Ellipse_1-13" data-name="Ellipse 1" cx="4" cy="4" r="4" transform="translate(1801 93)" fill="#f8dbd4"/>
          </g>
          <g transform="translate(-1753 99)">
            <circle id="Ellipse_1-14" data-name="Ellipse 1" cx="4" cy="4" r="4" transform="translate(1801 93)" fill="#f8dbd4"/>
          </g>
          <g transform="translate(-1705 99)">
            <circle id="Ellipse_1-15" data-name="Ellipse 1" cx="4" cy="4" r="4" transform="translate(1801 93)" fill="#f8dbd4"/>
          </g>
          <g transform="translate(-1801 147)">
            <circle id="Ellipse_1-16" data-name="Ellipse 1" cx="4" cy="4" r="4" transform="translate(1801 93)" fill="#f8dbd4"/>
          </g>
          <g transform="translate(-1753 147)">
            <circle id="Ellipse_1-17" data-name="Ellipse 1" cx="4" cy="4" r="4" transform="translate(1801 93)" fill="#f8dbd4"/>
          </g>
          <g transform="translate(-1705 147)">
            <circle id="Ellipse_1-18" data-name="Ellipse 1" cx="4" cy="4" r="4" transform="translate(1801 93)" fill="#f8dbd4"/>
          </g>
        </g>
      </g>
      <g id="Pattern-3" data-name="Pattern" transform="translate(1691 274)">
        <g id="Repeat_Grid_1-2" data-name="Repeat Grid 1" clip-path="url(#clip-path)">
          <g transform="translate(-1801 -93)">
            <circle id="Ellipse_1-19" data-name="Ellipse 1" cx="4" cy="4" r="4" transform="translate(1801 93)" fill="#f8dbd4"/>
          </g>
          <g transform="translate(-1753 -93)">
            <circle id="Ellipse_1-20" data-name="Ellipse 1" cx="4" cy="4" r="4" transform="translate(1801 93)" fill="#f8dbd4"/>
          </g>
          <g transform="translate(-1705 -93)">
            <circle id="Ellipse_1-21" data-name="Ellipse 1" cx="4" cy="4" r="4" transform="translate(1801 93)" fill="#f8dbd4"/>
          </g>
          <g transform="translate(-1801 -45)">
            <circle id="Ellipse_1-22" data-name="Ellipse 1" cx="4" cy="4" r="4" transform="translate(1801 93)" fill="#f8dbd4"/>
          </g>
          <g transform="translate(-1753 -45)">
            <circle id="Ellipse_1-23" data-name="Ellipse 1" cx="4" cy="4" r="4" transform="translate(1801 93)" fill="#f8dbd4"/>
          </g>
          <g transform="translate(-1705 -45)">
            <circle id="Ellipse_1-24" data-name="Ellipse 1" cx="4" cy="4" r="4" transform="translate(1801 93)" fill="#f8dbd4"/>
          </g>
          <g transform="translate(-1801 3)">
            <circle id="Ellipse_1-25" data-name="Ellipse 1" cx="4" cy="4" r="4" transform="translate(1801 93)" fill="#f8dbd4"/>
          </g>
          <g transform="translate(-1753 3)">
            <circle id="Ellipse_1-26" data-name="Ellipse 1" cx="4" cy="4" r="4" transform="translate(1801 93)" fill="#f8dbd4"/>
          </g>
          <g transform="translate(-1705 3)">
            <circle id="Ellipse_1-27" data-name="Ellipse 1" cx="4" cy="4" r="4" transform="translate(1801 93)" fill="#f8dbd4"/>
          </g>
          <g transform="translate(-1801 51)">
            <circle id="Ellipse_1-28" data-name="Ellipse 1" cx="4" cy="4" r="4" transform="translate(1801 93)" fill="#f8dbd4"/>
          </g>
          <g transform="translate(-1753 51)">
            <circle id="Ellipse_1-29" data-name="Ellipse 1" cx="4" cy="4" r="4" transform="translate(1801 93)" fill="#f8dbd4"/>
          </g>
          <g transform="translate(-1705 51)">
            <circle id="Ellipse_1-30" data-name="Ellipse 1" cx="4" cy="4" r="4" transform="translate(1801 93)" fill="#f8dbd4"/>
          </g>
          <g transform="translate(-1801 99)">
            <circle id="Ellipse_1-31" data-name="Ellipse 1" cx="4" cy="4" r="4" transform="translate(1801 93)" fill="#f8dbd4"/>
          </g>
          <g transform="translate(-1753 99)">
            <circle id="Ellipse_1-32" data-name="Ellipse 1" cx="4" cy="4" r="4" transform="translate(1801 93)" fill="#f8dbd4"/>
          </g>
          <g transform="translate(-1705 99)">
            <circle id="Ellipse_1-33" data-name="Ellipse 1" cx="4" cy="4" r="4" transform="translate(1801 93)" fill="#f8dbd4"/>
          </g>
          <g transform="translate(-1801 147)">
            <circle id="Ellipse_1-34" data-name="Ellipse 1" cx="4" cy="4" r="4" transform="translate(1801 93)" fill="#f8dbd4"/>
          </g>
          <g transform="translate(-1753 147)">
            <circle id="Ellipse_1-35" data-name="Ellipse 1" cx="4" cy="4" r="4" transform="translate(1801 93)" fill="#f8dbd4"/>
          </g>
          <g transform="translate(-1705 147)">
            <circle id="Ellipse_1-36" data-name="Ellipse 1" cx="4" cy="4" r="4" transform="translate(1801 93)" fill="#f8dbd4"/>
          </g>
        </g>
      </g>
      <g id="Pattern-4" data-name="Pattern" transform="translate(1570 274)">
        <g id="Repeat_Grid_1-3" data-name="Repeat Grid 1" clip-path="url(#clip-path)">
          <g transform="translate(-1801 -93)">
            <circle id="Ellipse_1-37" data-name="Ellipse 1" cx="4" cy="4" r="4" transform="translate(1801 93)" fill="#f8dbd4"/>
          </g>
          <g transform="translate(-1753 -93)">
            <circle id="Ellipse_1-38" data-name="Ellipse 1" cx="4" cy="4" r="4" transform="translate(1801 93)" fill="#f8dbd4"/>
          </g>
          <g transform="translate(-1705 -93)">
            <circle id="Ellipse_1-39" data-name="Ellipse 1" cx="4" cy="4" r="4" transform="translate(1801 93)" fill="#f8dbd4"/>
          </g>
          <g transform="translate(-1801 -45)">
            <circle id="Ellipse_1-40" data-name="Ellipse 1" cx="4" cy="4" r="4" transform="translate(1801 93)" fill="#f8dbd4"/>
          </g>
          <g transform="translate(-1753 -45)">
            <circle id="Ellipse_1-41" data-name="Ellipse 1" cx="4" cy="4" r="4" transform="translate(1801 93)" fill="#f8dbd4"/>
          </g>
          <g transform="translate(-1705 -45)">
            <circle id="Ellipse_1-42" data-name="Ellipse 1" cx="4" cy="4" r="4" transform="translate(1801 93)" fill="#f8dbd4"/>
          </g>
          <g transform="translate(-1801 3)">
            <circle id="Ellipse_1-43" data-name="Ellipse 1" cx="4" cy="4" r="4" transform="translate(1801 93)" fill="#f8dbd4"/>
          </g>
          <g transform="translate(-1753 3)">
            <circle id="Ellipse_1-44" data-name="Ellipse 1" cx="4" cy="4" r="4" transform="translate(1801 93)" fill="#f8dbd4"/>
          </g>
          <g transform="translate(-1705 3)">
            <circle id="Ellipse_1-45" data-name="Ellipse 1" cx="4" cy="4" r="4" transform="translate(1801 93)" fill="#f8dbd4"/>
          </g>
          <g transform="translate(-1801 51)">
            <circle id="Ellipse_1-46" data-name="Ellipse 1" cx="4" cy="4" r="4" transform="translate(1801 93)" fill="#f8dbd4"/>
          </g>
          <g transform="translate(-1753 51)">
            <circle id="Ellipse_1-47" data-name="Ellipse 1" cx="4" cy="4" r="4" transform="translate(1801 93)" fill="#f8dbd4"/>
          </g>
          <g transform="translate(-1705 51)">
            <circle id="Ellipse_1-48" data-name="Ellipse 1" cx="4" cy="4" r="4" transform="translate(1801 93)" fill="#f8dbd4"/>
          </g>
          <g transform="translate(-1801 99)">
            <circle id="Ellipse_1-49" data-name="Ellipse 1" cx="4" cy="4" r="4" transform="translate(1801 93)" fill="#f8dbd4"/>
          </g>
          <g transform="translate(-1753 99)">
            <circle id="Ellipse_1-50" data-name="Ellipse 1" cx="4" cy="4" r="4" transform="translate(1801 93)" fill="#f8dbd4"/>
          </g>
          <g transform="translate(-1705 99)">
            <circle id="Ellipse_1-51" data-name="Ellipse 1" cx="4" cy="4" r="4" transform="translate(1801 93)" fill="#f8dbd4"/>
          </g>
          <g transform="translate(-1801 147)">
            <circle id="Ellipse_1-52" data-name="Ellipse 1" cx="4" cy="4" r="4" transform="translate(1801 93)" fill="#f8dbd4"/>
          </g>
          <g transform="translate(-1753 147)">
            <circle id="Ellipse_1-53" data-name="Ellipse 1" cx="4" cy="4" r="4" transform="translate(1801 93)" fill="#f8dbd4"/>
          </g>
          <g transform="translate(-1705 147)">
            <circle id="Ellipse_1-54" data-name="Ellipse 1" cx="4" cy="4" r="4" transform="translate(1801 93)" fill="#f8dbd4"/>
          </g>
        </g>
      </g>
    </g>
    <g id="Pattern-5" data-name="Pattern" transform="translate(-597 555)" opacity="0.43">
      <g id="Pattern-6" data-name="Pattern" transform="translate(1811 274)">
        <g id="Repeat_Grid_1-4" data-name="Repeat Grid 1" clip-path="url(#clip-path)">
          <g transform="translate(-1801 -93)">
            <circle id="Ellipse_1-55" data-name="Ellipse 1" cx="4" cy="4" r="4" transform="translate(1801 93)" fill="#f5cbcb"/>
          </g>
          <g transform="translate(-1753 -93)">
            <circle id="Ellipse_1-56" data-name="Ellipse 1" cx="4" cy="4" r="4" transform="translate(1801 93)" fill="#f5cbcb"/>
          </g>
          <g transform="translate(-1705 -93)">
            <circle id="Ellipse_1-57" data-name="Ellipse 1" cx="4" cy="4" r="4" transform="translate(1801 93)" fill="#f5cbcb"/>
          </g>
          <g transform="translate(-1801 -45)">
            <circle id="Ellipse_1-58" data-name="Ellipse 1" cx="4" cy="4" r="4" transform="translate(1801 93)" fill="#f5cbcb"/>
          </g>
          <g transform="translate(-1753 -45)">
            <circle id="Ellipse_1-59" data-name="Ellipse 1" cx="4" cy="4" r="4" transform="translate(1801 93)" fill="#f5cbcb"/>
          </g>
          <g transform="translate(-1705 -45)">
            <circle id="Ellipse_1-60" data-name="Ellipse 1" cx="4" cy="4" r="4" transform="translate(1801 93)" fill="#f5cbcb"/>
          </g>
          <g transform="translate(-1801 3)">
            <circle id="Ellipse_1-61" data-name="Ellipse 1" cx="4" cy="4" r="4" transform="translate(1801 93)" fill="#f5cbcb"/>
          </g>
          <g transform="translate(-1753 3)">
            <circle id="Ellipse_1-62" data-name="Ellipse 1" cx="4" cy="4" r="4" transform="translate(1801 93)" fill="#f5cbcb"/>
          </g>
          <g transform="translate(-1705 3)">
            <circle id="Ellipse_1-63" data-name="Ellipse 1" cx="4" cy="4" r="4" transform="translate(1801 93)" fill="#f5cbcb"/>
          </g>
          <g transform="translate(-1801 51)">
            <circle id="Ellipse_1-64" data-name="Ellipse 1" cx="4" cy="4" r="4" transform="translate(1801 93)" fill="#f5cbcb"/>
          </g>
          <g transform="translate(-1753 51)">
            <circle id="Ellipse_1-65" data-name="Ellipse 1" cx="4" cy="4" r="4" transform="translate(1801 93)" fill="#f5cbcb"/>
          </g>
          <g transform="translate(-1705 51)">
            <circle id="Ellipse_1-66" data-name="Ellipse 1" cx="4" cy="4" r="4" transform="translate(1801 93)" fill="#f5cbcb"/>
          </g>
          <g transform="translate(-1801 99)">
            <circle id="Ellipse_1-67" data-name="Ellipse 1" cx="4" cy="4" r="4" transform="translate(1801 93)" fill="#f5cbcb"/>
          </g>
          <g transform="translate(-1753 99)">
            <circle id="Ellipse_1-68" data-name="Ellipse 1" cx="4" cy="4" r="4" transform="translate(1801 93)" fill="#f5cbcb"/>
          </g>
          <g transform="translate(-1705 99)">
            <circle id="Ellipse_1-69" data-name="Ellipse 1" cx="4" cy="4" r="4" transform="translate(1801 93)" fill="#f5cbcb"/>
          </g>
          <g transform="translate(-1801 147)">
            <circle id="Ellipse_1-70" data-name="Ellipse 1" cx="4" cy="4" r="4" transform="translate(1801 93)" fill="#f5cbcb"/>
          </g>
          <g transform="translate(-1753 147)">
            <circle id="Ellipse_1-71" data-name="Ellipse 1" cx="4" cy="4" r="4" transform="translate(1801 93)" fill="#f5cbcb"/>
          </g>
          <g transform="translate(-1705 147)">
            <circle id="Ellipse_1-72" data-name="Ellipse 1" cx="4" cy="4" r="4" transform="translate(1801 93)" fill="#f5cbcb"/>
          </g>
        </g>
      </g>
      <g id="Pattern-7" data-name="Pattern" transform="translate(1691 274)">
        <g id="Repeat_Grid_1-5" data-name="Repeat Grid 1" clip-path="url(#clip-path)">
          <g transform="translate(-1801 -93)">
            <circle id="Ellipse_1-73" data-name="Ellipse 1" cx="4" cy="4" r="4" transform="translate(1801 93)" fill="#f5cbcb"/>
          </g>
          <g transform="translate(-1753 -93)">
            <circle id="Ellipse_1-74" data-name="Ellipse 1" cx="4" cy="4" r="4" transform="translate(1801 93)" fill="#f5cbcb"/>
          </g>
          <g transform="translate(-1705 -93)">
            <circle id="Ellipse_1-75" data-name="Ellipse 1" cx="4" cy="4" r="4" transform="translate(1801 93)" fill="#f5cbcb"/>
          </g>
          <g transform="translate(-1801 -45)">
            <circle id="Ellipse_1-76" data-name="Ellipse 1" cx="4" cy="4" r="4" transform="translate(1801 93)" fill="#f5cbcb"/>
          </g>
          <g transform="translate(-1753 -45)">
            <circle id="Ellipse_1-77" data-name="Ellipse 1" cx="4" cy="4" r="4" transform="translate(1801 93)" fill="#f5cbcb"/>
          </g>
          <g transform="translate(-1705 -45)">
            <circle id="Ellipse_1-78" data-name="Ellipse 1" cx="4" cy="4" r="4" transform="translate(1801 93)" fill="#f5cbcb"/>
          </g>
          <g transform="translate(-1801 3)">
            <circle id="Ellipse_1-79" data-name="Ellipse 1" cx="4" cy="4" r="4" transform="translate(1801 93)" fill="#f5cbcb"/>
          </g>
          <g transform="translate(-1753 3)">
            <circle id="Ellipse_1-80" data-name="Ellipse 1" cx="4" cy="4" r="4" transform="translate(1801 93)" fill="#f5cbcb"/>
          </g>
          <g transform="translate(-1705 3)">
            <circle id="Ellipse_1-81" data-name="Ellipse 1" cx="4" cy="4" r="4" transform="translate(1801 93)" fill="#f5cbcb"/>
          </g>
          <g transform="translate(-1801 51)">
            <circle id="Ellipse_1-82" data-name="Ellipse 1" cx="4" cy="4" r="4" transform="translate(1801 93)" fill="#f5cbcb"/>
          </g>
          <g transform="translate(-1753 51)">
            <circle id="Ellipse_1-83" data-name="Ellipse 1" cx="4" cy="4" r="4" transform="translate(1801 93)" fill="#f5cbcb"/>
          </g>
          <g transform="translate(-1705 51)">
            <circle id="Ellipse_1-84" data-name="Ellipse 1" cx="4" cy="4" r="4" transform="translate(1801 93)" fill="#f5cbcb"/>
          </g>
          <g transform="translate(-1801 99)">
            <circle id="Ellipse_1-85" data-name="Ellipse 1" cx="4" cy="4" r="4" transform="translate(1801 93)" fill="#f5cbcb"/>
          </g>
          <g transform="translate(-1753 99)">
            <circle id="Ellipse_1-86" data-name="Ellipse 1" cx="4" cy="4" r="4" transform="translate(1801 93)" fill="#f5cbcb"/>
          </g>
          <g transform="translate(-1705 99)">
            <circle id="Ellipse_1-87" data-name="Ellipse 1" cx="4" cy="4" r="4" transform="translate(1801 93)" fill="#f5cbcb"/>
          </g>
          <g transform="translate(-1801 147)">
            <circle id="Ellipse_1-88" data-name="Ellipse 1" cx="4" cy="4" r="4" transform="translate(1801 93)" fill="#f5cbcb"/>
          </g>
          <g transform="translate(-1753 147)">
            <circle id="Ellipse_1-89" data-name="Ellipse 1" cx="4" cy="4" r="4" transform="translate(1801 93)" fill="#f5cbcb"/>
          </g>
          <g transform="translate(-1705 147)">
            <circle id="Ellipse_1-90" data-name="Ellipse 1" cx="4" cy="4" r="4" transform="translate(1801 93)" fill="#f5cbcb"/>
          </g>
        </g>
      </g>
      <g id="Pattern-8" data-name="Pattern" transform="translate(1570 274)">
        <g id="Repeat_Grid_1-6" data-name="Repeat Grid 1" clip-path="url(#clip-path)">
          <g transform="translate(-1801 -93)">
            <circle id="Ellipse_1-91" data-name="Ellipse 1" cx="4" cy="4" r="4" transform="translate(1801 93)" fill="#f5cbcb"/>
          </g>
          <g transform="translate(-1753 -93)">
            <circle id="Ellipse_1-92" data-name="Ellipse 1" cx="4" cy="4" r="4" transform="translate(1801 93)" fill="#f5cbcb"/>
          </g>
          <g transform="translate(-1705 -93)">
            <circle id="Ellipse_1-93" data-name="Ellipse 1" cx="4" cy="4" r="4" transform="translate(1801 93)" fill="#f5cbcb"/>
          </g>
          <g transform="translate(-1801 -45)">
            <circle id="Ellipse_1-94" data-name="Ellipse 1" cx="4" cy="4" r="4" transform="translate(1801 93)" fill="#f5cbcb"/>
          </g>
          <g transform="translate(-1753 -45)">
            <circle id="Ellipse_1-95" data-name="Ellipse 1" cx="4" cy="4" r="4" transform="translate(1801 93)" fill="#f5cbcb"/>
          </g>
          <g transform="translate(-1705 -45)">
            <circle id="Ellipse_1-96" data-name="Ellipse 1" cx="4" cy="4" r="4" transform="translate(1801 93)" fill="#f5cbcb"/>
          </g>
          <g transform="translate(-1801 3)">
            <circle id="Ellipse_1-97" data-name="Ellipse 1" cx="4" cy="4" r="4" transform="translate(1801 93)" fill="#f5cbcb"/>
          </g>
          <g transform="translate(-1753 3)">
            <circle id="Ellipse_1-98" data-name="Ellipse 1" cx="4" cy="4" r="4" transform="translate(1801 93)" fill="#f5cbcb"/>
          </g>
          <g transform="translate(-1705 3)">
            <circle id="Ellipse_1-99" data-name="Ellipse 1" cx="4" cy="4" r="4" transform="translate(1801 93)" fill="#f5cbcb"/>
          </g>
          <g transform="translate(-1801 51)">
            <circle id="Ellipse_1-100" data-name="Ellipse 1" cx="4" cy="4" r="4" transform="translate(1801 93)" fill="#f5cbcb"/>
          </g>
          <g transform="translate(-1753 51)">
            <circle id="Ellipse_1-101" data-name="Ellipse 1" cx="4" cy="4" r="4" transform="translate(1801 93)" fill="#f5cbcb"/>
          </g>
          <g transform="translate(-1705 51)">
            <circle id="Ellipse_1-102" data-name="Ellipse 1" cx="4" cy="4" r="4" transform="translate(1801 93)" fill="#f5cbcb"/>
          </g>
          <g transform="translate(-1801 99)">
            <circle id="Ellipse_1-103" data-name="Ellipse 1" cx="4" cy="4" r="4" transform="translate(1801 93)" fill="#f5cbcb"/>
          </g>
          <g transform="translate(-1753 99)">
            <circle id="Ellipse_1-104" data-name="Ellipse 1" cx="4" cy="4" r="4" transform="translate(1801 93)" fill="#f5cbcb"/>
          </g>
          <g transform="translate(-1705 99)">
            <circle id="Ellipse_1-105" data-name="Ellipse 1" cx="4" cy="4" r="4" transform="translate(1801 93)" fill="#f5cbcb"/>
          </g>
          <g transform="translate(-1801 147)">
            <circle id="Ellipse_1-106" data-name="Ellipse 1" cx="4" cy="4" r="4" transform="translate(1801 93)" fill="#f5cbcb"/>
          </g>
          <g transform="translate(-1753 147)">
            <circle id="Ellipse_1-107" data-name="Ellipse 1" cx="4" cy="4" r="4" transform="translate(1801 93)" fill="#f5cbcb"/>
          </g>
          <g transform="translate(-1705 147)">
            <circle id="Ellipse_1-108" data-name="Ellipse 1" cx="4" cy="4" r="4" transform="translate(1801 93)" fill="#f5cbcb"/>
          </g>
        </g>
      </g>
    </g>
  </g>
</svg>
