<svg xmlns="http://www.w3.org/2000/svg" width="481.971" height="472.423" viewBox="0 0 481.971 472.423">
  <g id="iMAGE" transform="translate(-295.752)">
    <g id="Group_382" data-name="Group 382" transform="translate(482.771)">
      <g id="Group_374" data-name="Group 374" transform="translate(0 97.692)">
        <path id="Path_163" data-name="Path 163" d="M441.929,66.667h-90.9L395.206,42.4Zm-81.916-2.3h72.482L395.238,45.014Z" transform="translate(-351.029 -42.401)" fill="#fff"/>
      </g>
      <g id="Group_375" data-name="Group 375" transform="translate(44.193)">
        <rect id="Rectangle_159" data-name="Rectangle 159" width="2.772" height="88.267" fill="#fff"/>
      </g>
      <g id="Group_377" data-name="Group 377" transform="translate(41.623 83.074)">
        <g id="Group_376" data-name="Group 376">
          <rect id="Rectangle_160" data-name="Rectangle 160" width="6.829" height="18.767" fill="#d55c3e"/>
        </g>
      </g>
      <g id="Group_381" data-name="Group 381" transform="translate(24.848 125.817)">
        <g id="Group_378" data-name="Group 378">
          <rect id="Rectangle_161" data-name="Rectangle 161" width="15.959" height="2.304" transform="matrix(0.643, -0.766, 0.766, 0.643, 0, 12.216)" fill="#fff"/>
        </g>
        <g id="Group_379" data-name="Group 379" transform="translate(17.832 1.375)">
          <rect id="Rectangle_162" data-name="Rectangle 162" width="15.958" height="2.305" transform="translate(0 15.948) rotate(-87.99)" fill="#fff"/>
        </g>
        <g id="Group_380" data-name="Group 380" transform="translate(28.676 0.361)">
          <rect id="Rectangle_163" data-name="Rectangle 163" width="2.305" height="15.957" transform="translate(0 1.293) rotate(-34.129)" fill="#fff"/>
        </g>
      </g>
    </g>
    <g id="Group_452" data-name="Group 452" transform="translate(295.752 154.76)">
      <g id="Group_386" data-name="Group 386" transform="translate(330.685)">
        <g id="Group_383" data-name="Group 383" transform="translate(5.274)">
          <rect id="Rectangle_164" data-name="Rectangle 164" width="97.794" height="66.645" transform="translate(1.152 1.152)" fill="#fd9697"/>
          <path id="Path_164" data-name="Path 164" d="M515.77,136.12h-100.1V67.17h100.1Zm-97.793-2.3h95.489V69.474H417.977Z" transform="translate(-415.673 -67.17)" fill="#fff"/>
        </g>
        <g id="Group_384" data-name="Group 384" transform="translate(15.005 10.771)">
          <rect id="Rectangle_165" data-name="Rectangle 165" width="80.064" height="48.157" fill="#e57a80"/>
        </g>
        <g id="Group_385" data-name="Group 385" transform="translate(0 15.405)">
          <rect id="Rectangle_166" data-name="Rectangle 166" width="10.944" height="18.865" fill="#fd9697"/>
        </g>
      </g>
      <g id="Group_387" data-name="Group 387" transform="translate(36.059 29.954)">
        <rect id="Rectangle_167" data-name="Rectangle 167" width="268.785" height="36.69" transform="translate(1.152 1.153)" fill="#fd9697"/>
        <path id="Path_165" data-name="Path 165" d="M556.6,119.166H285.508v-39H556.6Zm-268.785-2.3H554.293V82.475H287.812Z" transform="translate(-285.508 -80.171)" fill="#fff"/>
      </g>
      <g id="Group_388" data-name="Group 388" transform="translate(45.103 41.943)">
        <rect id="Rectangle_168" data-name="Rectangle 168" width="252.603" height="15.854" fill="#e57a80"/>
      </g>
      <g id="Group_389" data-name="Group 389" transform="translate(59.454 66.059)">
        <rect id="Rectangle_169" data-name="Rectangle 169" width="54.338" height="7.935" fill="#fd9697"/>
      </g>
      <g id="Group_411" data-name="Group 411" transform="translate(0 98.8)">
        <g id="Group_407" data-name="Group 407">
          <g id="Group_403" data-name="Group 403">
            <g id="Group_390" data-name="Group 390" transform="translate(49.183 19.471)">
              <rect id="Rectangle_170" data-name="Rectangle 170" width="1.834" height="122.992" fill="#fff"/>
            </g>
            <g id="Group_391" data-name="Group 391" transform="translate(31.768 130.469)">
              <path id="Path_166" data-name="Path 166" d="M315.269,209.669H289.606l-5.96-42.99h38.5Z" transform="translate(-283.645 -166.679)" fill="#f9c34f"/>
            </g>
            <g id="Group_396" data-name="Group 396" transform="translate(0 16.497)">
              <g id="Group_392" data-name="Group 392" transform="translate(3.209)">
                <path id="Path_167" data-name="Path 167" d="M300.494,129.421c10.382,11.767,14.186,25.376,8.493,30.4s-18.725-.442-29.111-12.209-8.49-30.4-8.49-30.4S290.108,117.654,300.494,129.421Z" transform="translate(-271.25 -117.212)" fill="#00968d"/>
              </g>
              <g id="Group_393" data-name="Group 393" transform="translate(0 47.451)">
                <path id="Path_168" data-name="Path 168" d="M299.1,150.016c10.382,11.764,14.186,25.376,8.49,30.4s-18.727-.442-29.109-12.209-8.493-30.4-8.493-30.4S288.719,138.247,299.1,150.016Z" transform="translate(-269.857 -137.807)" fill="#00968d"/>
              </g>
              <g id="Group_394" data-name="Group 394" transform="translate(25.549 26.363)">
                <rect id="Rectangle_171" data-name="Rectangle 171" width="1.474" height="34.81" transform="translate(0 1.034) rotate(-44.562)" fill="#fff"/>
              </g>
              <g id="Group_395" data-name="Group 395" transform="translate(27.64 78.129)">
                <rect id="Rectangle_172" data-name="Rectangle 172" width="1.472" height="31.822" transform="matrix(0.712, -0.702, 0.702, 0.712, 0, 1.034)" fill="#fff"/>
              </g>
            </g>
            <g id="Group_401" data-name="Group 401" transform="translate(50.108)">
              <g id="Group_397" data-name="Group 397" transform="translate(7.42)">
                <path id="Path_169" data-name="Path 169" d="M305.964,122.259c-10.386,11.767-14.186,25.379-8.493,30.4s18.727-.44,29.111-12.207,8.493-30.4,8.493-30.4S316.348,110.492,305.964,122.259Z" transform="translate(-294.826 -110.052)" fill="#00968d"/>
              </g>
              <g id="Group_398" data-name="Group 398" transform="translate(10.626 47.449)">
                <path id="Path_170" data-name="Path 170" d="M307.358,142.855c-10.386,11.767-14.19,25.376-8.495,30.4s18.727-.442,29.109-12.207,8.493-30.4,8.493-30.4S317.74,131.086,307.358,142.855Z" transform="translate(-296.218 -130.646)" fill="#00968d"/>
              </g>
              <g id="Group_399" data-name="Group 399" transform="translate(0.001 26.343)">
                <rect id="Rectangle_173" data-name="Rectangle 173" width="34.812" height="1.476" transform="translate(0 24.837) rotate(-45.519)" fill="#fff"/>
              </g>
              <g id="Group_400" data-name="Group 400" transform="translate(0 78.105)">
                <rect id="Rectangle_174" data-name="Rectangle 174" width="31.822" height="1.476" transform="translate(0 22.705) rotate(-45.519)" fill="#fff"/>
              </g>
            </g>
            <g id="Group_402" data-name="Group 402" transform="translate(33.412 142.321)">
              <path id="Path_171" data-name="Path 171" d="M284.359,171.823l.814,5.881h33.2l.943-5.881Z" transform="translate(-284.359 -171.823)" fill="#171b23"/>
            </g>
          </g>
          <g id="Group_404" data-name="Group 404" transform="translate(50.098 166.295)">
            <rect id="Rectangle_175" data-name="Rectangle 175" width="40.923" height="9.779" fill="#171b23"/>
          </g>
          <g id="Group_405" data-name="Group 405" transform="translate(47.498 151.963)">
            <rect id="Rectangle_176" data-name="Rectangle 176" width="32.141" height="8.486" fill="#89cff9"/>
          </g>
          <g id="Group_406" data-name="Group 406" transform="translate(59.103 160.449)">
            <rect id="Rectangle_177" data-name="Rectangle 177" width="28.793" height="5.845" fill="#262562"/>
          </g>
        </g>
        <g id="Group_408" data-name="Group 408" transform="translate(50.098 153.958)">
          <rect id="Rectangle_178" data-name="Rectangle 178" width="29.54" height="4.682" fill="#fff"/>
        </g>
        <g id="Group_409" data-name="Group 409" transform="translate(61.767 161.805)">
          <rect id="Rectangle_179" data-name="Rectangle 179" width="26.129" height="3.291" fill="#fff"/>
        </g>
        <g id="Group_410" data-name="Group 410" transform="translate(53.285 169.652)">
          <rect id="Rectangle_180" data-name="Rectangle 180" width="37.737" height="3.807" fill="#fff"/>
        </g>
      </g>
      <g id="Group_412" data-name="Group 412" transform="translate(130.451 52.938)">
        <rect id="Rectangle_181" data-name="Rectangle 181" width="281.758" height="192.378" fill="#ecebe4"/>
        <rect id="Rectangle_182" data-name="Rectangle 182" width="262.919" height="16.965" transform="translate(6.586 5.713)" fill="#f9f9f7"/>
        <rect id="Rectangle_183" data-name="Rectangle 183" width="99.891" height="153.071" transform="translate(10.363 31.157)" fill="#f9f9f7"/>
        <rect id="Rectangle_184" data-name="Rectangle 184" width="78.217" height="44.47" transform="translate(18.839 130.42)" fill="#d3d2cd"/>
        <rect id="Rectangle_185" data-name="Rectangle 185" width="78.217" height="6.284" transform="translate(18.839 42.778)" fill="#d3d2cd"/>
        <rect id="Rectangle_186" data-name="Rectangle 186" width="78.217" height="6.276" transform="translate(18.839 56.919)" fill="#d3d2cd"/>
        <rect id="Rectangle_187" data-name="Rectangle 187" width="78.217" height="6.283" transform="translate(18.839 73.878)" fill="#d3d2cd"/>
        <rect id="Rectangle_188" data-name="Rectangle 188" width="78.217" height="6.283" transform="translate(18.839 88.011)" fill="#d3d2cd"/>
        <rect id="Rectangle_189" data-name="Rectangle 189" width="130.979" height="7.539" transform="translate(138.526 31.157)" fill="#d3d2cd"/>
        <rect id="Rectangle_190" data-name="Rectangle 190" width="130.979" height="7.542" transform="translate(138.526 45.29)" fill="#d3d2cd"/>
        <rect id="Rectangle_191" data-name="Rectangle 191" width="130.979" height="7.539" transform="translate(138.526 62.255)" fill="#d3d2cd"/>
        <rect id="Rectangle_192" data-name="Rectangle 192" width="130.979" height="99.636" transform="translate(138.526 80.161)" fill="#f9f9f7"/>
        <rect id="Rectangle_193" data-name="Rectangle 193" width="111.191" height="44.831" transform="translate(149.834 91.156)" fill="#d3d2cd"/>
        <rect id="Rectangle_194" data-name="Rectangle 194" width="142.763" height="8.011" transform="translate(10.363 9.954)" fill="#d3d2cd"/>
        <rect id="Rectangle_195" data-name="Rectangle 195" width="56.533" height="8.011" transform="translate(207.792 9.954)" fill="#d3d2cd"/>
      </g>
      <g id="Group_413" data-name="Group 413" transform="translate(223.443 207.451)">
        <rect id="Rectangle_196" data-name="Rectangle 196" width="208.613" height="27.346" fill="#7a92ce"/>
        <rect id="Rectangle_197" data-name="Rectangle 197" width="106.024" height="27.346" transform="translate(102.589)" fill="#6884bc"/>
        <rect id="Rectangle_198" data-name="Rectangle 198" width="202.745" height="18.939" transform="translate(5.868 4.204)" fill="#ecebe4"/>
        <rect id="Rectangle_199" data-name="Rectangle 199" width="106.024" height="18.939" transform="translate(102.589 4.204)" fill="#d3d2cd"/>
        <rect id="Rectangle_200" data-name="Rectangle 200" width="26.437" height="4.204" transform="translate(190.746)" fill="#6884bc"/>
        <rect id="Rectangle_201" data-name="Rectangle 201" width="26.437" height="4.203" transform="translate(190.746 23.143)" fill="#6884bc"/>
      </g>
      <g id="Group_414" data-name="Group 414" transform="translate(242.878 167.464)">
        <rect id="Rectangle_202" data-name="Rectangle 202" width="162.522" height="39.987" fill="#d55c3e"/>
        <rect id="Rectangle_203" data-name="Rectangle 203" width="82.593" height="39.987" transform="translate(79.929)" fill="#c64f38"/>
        <rect id="Rectangle_204" data-name="Rectangle 204" width="157.943" height="27.681" transform="translate(4.579 6.154)" fill="#ecebe4"/>
        <rect id="Rectangle_205" data-name="Rectangle 205" width="82.593" height="27.681" transform="translate(79.929 6.154)" fill="#d3d2cd"/>
        <rect id="Rectangle_206" data-name="Rectangle 206" width="20.603" height="6.154" transform="translate(148.597)" fill="#c64f38"/>
        <rect id="Rectangle_207" data-name="Rectangle 207" width="20.603" height="6.153" transform="translate(148.597 33.834)" fill="#c64f38"/>
      </g>
      <g id="Group_415" data-name="Group 415" transform="translate(212.148 234.781)">
        <rect id="Rectangle_208" data-name="Rectangle 208" width="242.123" height="44.336" fill="#11141b"/>
        <rect id="Rectangle_209" data-name="Rectangle 209" width="123.048" height="44.336" transform="translate(119.075)" fill="#030405"/>
        <rect id="Rectangle_210" data-name="Rectangle 210" width="235.294" height="30.684" transform="translate(6.829 6.825)" fill="#ecebe4"/>
        <rect id="Rectangle_211" data-name="Rectangle 211" width="123.048" height="30.684" transform="translate(119.075 6.825)" fill="#d3d2cd"/>
        <rect id="Rectangle_212" data-name="Rectangle 212" width="30.692" height="6.825" transform="translate(221.38)" fill="#030405"/>
        <rect id="Rectangle_213" data-name="Rectangle 213" width="30.692" height="6.827" transform="translate(221.38 37.51)" fill="#030405"/>
      </g>
      <g id="Group_429" data-name="Group 429" transform="translate(29.255 148.65)">
        <path id="Path_172" data-name="Path 172" d="M402.089,203.618s-66.814-48.135-70.376-47.423-26.3,61.717-26.3,61.717h13.5l18.831-33.286,28.8,33.286Z" transform="translate(-252.741 -99.742)" fill="#c44e37"/>
        <path id="Path_173" data-name="Path 173" d="M457,180.547s2.843,22.743-23.457,21.326l-79.6-3.17-66.1,6.718V192.987l72.841-12.439S431.4,172.018,457,180.547Z" transform="translate(-275.67 -72.918)" fill="#d55c3e"/>
        <path id="Path_174" data-name="Path 174" d="M294.72,191.5s-4.267-.535-6.4-8.262-6.4-6.483-5.686,0-1.419,22.828,3.557,20.7a9.794,9.794,0,0,1,8.529,0Z" transform="translate(-282.555 -71.432)" fill="#11141b"/>
        <g id="Group_428" data-name="Group 428" transform="translate(134.507)">
          <g id="Group_416" data-name="Group 416" transform="translate(0 18.018)">
            <path id="Path_175" data-name="Path 175" d="M340.935,226.444l51.563,5.623,3.217-38.116,17.206-35.206-20.95-12.266-35.377-6.971L348.085,191.3Z" transform="translate(-340.935 -139.508)" fill="#cb8ede"/>
          </g>
          <g id="Group_417" data-name="Group 417" transform="translate(1.654 81.495)">
            <path id="Path_176" data-name="Path 176" d="M349.056,170.317s-5.91,1.113-6.843.092c-.783-.857-2.115-5.126,6.977-2.514Z" transform="translate(-341.652 -167.059)" fill="#fe7a42"/>
          </g>
          <g id="Group_418" data-name="Group 418" transform="translate(7.841 33.389)">
            <path id="Path_177" data-name="Path 177" d="M402.323,146.18l6.19,3.717-17.3,45.225-46.87,3.145.646-3.274,37.273-9.216Z" transform="translate(-344.338 -146.18)" fill="#171b23"/>
          </g>
          <g id="Group_423" data-name="Group 423" transform="translate(38.402)">
            <g id="Group_419" data-name="Group 419" transform="translate(0 14.05)">
              <path id="Path_178" data-name="Path 178" d="M361.088,137.786l-3.486,9.7s11.508,9.85,10.73,4.783c-.74-4.707-.615-13.918-.615-13.918Z" transform="translate(-357.602 -137.786)" fill="#fe7a42"/>
            </g>
            <g id="Group_420" data-name="Group 420" transform="translate(2.21 0.692)">
              <path id="Path_179" data-name="Path 179" d="M360.81,133.909c-.986,1.961-2.928,5.778-2.007,8.552s2.226,7.7,5.191,9.11,4.993-1.159,5.587-2.345c.952-1.905,2.541-12.925-2.143-16.036C363.9,130.833,361.551,132.418,360.81,133.909Z" transform="translate(-358.561 -131.988)" fill="#ff8155"/>
            </g>
            <g id="Group_421" data-name="Group 421" transform="translate(1.595)">
              <path id="Path_180" data-name="Path 180" d="M369.586,135.775a6.138,6.138,0,0,1-5.679.832c-3.329-1.129-3.182,2.267-3.212,2.636s.145,5.219-1.032,5.193c-1.193-.025-2.269-6.131-.2-10A5.533,5.533,0,0,1,369.586,135.775Z" transform="translate(-358.294 -131.688)" fill="#171b23"/>
            </g>
            <g id="Group_422" data-name="Group 422" transform="translate(3.59 13.253)">
              <path id="Path_181" data-name="Path 181" d="M359.16,138.755s3.163,3.629,6.755,3.488c2.269-.078,3.755-3.9,3.822-4.744s.447,7.546-4.53,7.414C360.247,144.773,359.16,138.755,359.16,138.755Z" transform="translate(-359.16 -137.44)" fill="#171b23"/>
            </g>
          </g>
          <g id="Group_424" data-name="Group 424" transform="translate(44.901 18.994)">
            <path id="Path_182" data-name="Path 182" d="M360.423,147.66s3.76-7.55,5.7-7.721c1.624-.152,7.532,1.979-3.106,9.933Z" transform="translate(-360.423 -139.932)" fill="#fe7a42"/>
          </g>
          <g id="Group_425" data-name="Group 425" transform="translate(6.154 17.795)">
            <path id="Path_183" data-name="Path 183" d="M343.605,158.151l8.363-18.739,3.658,1.019,1.276,34.812,25.668-29.275,4.507,3.411-35.993,47.949Z" transform="translate(-343.605 -139.412)" fill="#171b23"/>
          </g>
          <g id="Group_426" data-name="Group 426" transform="translate(35.678 65.982)">
            <path id="Path_184" data-name="Path 184" d="M370.05,160.326l-3.548,7-10.082,2.491,11.529,1.154Z" transform="translate(-356.42 -160.326)" fill="#0a0c0f"/>
          </g>
          <g id="Group_427" data-name="Group 427" transform="translate(18.216 42.795)">
            <path id="Path_185" data-name="Path 185" d="M350.076,161.094l6.43-7.335-7.666,13.571.835-17.067Z" transform="translate(-348.841 -150.262)" fill="#0a0c0f"/>
          </g>
        </g>
      </g>
      <g id="Group_447" data-name="Group 447" transform="translate(366.326 52.836)">
        <g id="Group_432" data-name="Group 432" transform="translate(0 27.104)">
          <g id="Group_430" data-name="Group 430" transform="translate(6.861)">
            <path id="Path_186" data-name="Path 186" d="M488.231,115.3l-16.888,26.943-39.511-15.711,1.177-3.373,32.265,7.329,16.3-23.13s4.857-8.218,10.08-4.541A27.76,27.76,0,0,1,488.231,115.3Z" transform="translate(-431.831 -101.866)" fill="#fe7a42"/>
          </g>
          <g id="Group_431" data-name="Group 431" transform="translate(0 18.034)">
            <path id="Path_187" data-name="Path 187" d="M437.566,113.469s-5.566-4.292-7.083-3.723c-1.281.482-4.935,4.223,5.94,6.327Z" transform="translate(-428.853 -109.693)" fill="#fe7a42"/>
          </g>
        </g>
        <g id="Group_435" data-name="Group 435" transform="translate(46.949 35.226)">
          <g id="Group_433" data-name="Group 433" transform="translate(6.851)">
            <path id="Path_188" data-name="Path 188" d="M508.611,118.823l-16.888,26.941L452.2,130.048l1.187-3.364,32.263,7.322,16.289-23.128s4.871-8.221,10.087-4.539A27.752,27.752,0,0,1,508.611,118.823Z" transform="translate(-452.204 -105.391)" fill="#fe7a42"/>
          </g>
          <g id="Group_434" data-name="Group 434" transform="translate(0 18.031)">
            <path id="Path_189" data-name="Path 189" d="M457.95,117s-5.576-4.3-7.094-3.728c-1.272.479-4.931,4.226,5.935,6.329Z" transform="translate(-449.23 -113.217)" fill="#fe7a42"/>
          </g>
        </g>
        <g id="Group_436" data-name="Group 436" transform="translate(88.556 220.846)">
          <path id="Path_190" data-name="Path 190" d="M477.061,185.956l-2.273.187-.4,3.48-.812,1.53-6.286,5.12,11.329-3.683Z" transform="translate(-467.289 -185.956)" fill="#db2c39"/>
        </g>
        <g id="Group_437" data-name="Group 437" transform="translate(104 214.757)">
          <path id="Path_191" data-name="Path 191" d="M476.444,183.313l-1.784,1.414,1.584,3.114.167,1.73-2.419,7.738,7.42-9.33Z" transform="translate(-473.992 -183.313)" fill="#db2c39"/>
        </g>
        <g id="Group_438" data-name="Group 438" transform="translate(82.915 95.574)">
          <path id="Path_192" data-name="Path 192" d="M491.28,131.584,484.9,201.775l-2.282,57.886h-5.472L471.674,199.5l-6.833-67.914Z" transform="translate(-464.841 -131.584)" fill="#038276"/>
        </g>
        <g id="Group_439" data-name="Group 439" transform="translate(59.216 95.574)">
          <path id="Path_193" data-name="Path 193" d="M454.555,131.584l1.82,64.038,42.847,58.571,5.472-2.738L475.07,198.588l10.471-63.358v-3.646Z" transform="translate(-454.555 -131.584)" fill="#00968d"/>
        </g>
        <g id="Group_440" data-name="Group 440" transform="translate(59.216 21.356)">
          <path id="Path_194" data-name="Path 194" d="M504.694,173.589H454.555l5.472-35.094V103.383L480,99.372l24.7,2.271v71.946Z" transform="translate(-454.555 -99.372)" fill="#f9c34f"/>
        </g>
        <g id="Group_441" data-name="Group 441" transform="translate(53.07 25.369)">
          <path id="Path_195" data-name="Path 195" d="M465.573,101.295s8.165,4.649-5.562,19.526l-8.124-8.778S457.993,99.466,465.573,101.295Z" transform="translate(-451.887 -101.113)" fill="#171b23"/>
        </g>
        <g id="Group_442" data-name="Group 442" transform="translate(103.062 23.495)">
          <path id="Path_196" data-name="Path 196" d="M478.43,100.316s9.315-1.288,7.5,18.872l-11.792-2.007S471.306,103.491,478.43,100.316Z" transform="translate(-473.585 -100.3)" fill="#171b23"/>
        </g>
        <g id="Group_446" data-name="Group 446" transform="translate(77.402)">
          <g id="Group_443" data-name="Group 443" transform="translate(4.354 12.667)">
            <path id="Path_197" data-name="Path 197" d="M471.43,106.429c.111,1.765-6.988,1.765-7.059,0a36,36,0,0,1,.682-8.889L470.3,95.6S471.213,102.729,471.43,106.429Z" transform="translate(-464.338 -95.6)" fill="#fe7a42"/>
          </g>
          <g id="Group_444" data-name="Group 444" transform="translate(0.005 1.418)">
            <path id="Path_198" data-name="Path 198" d="M468.433,106.756c-.484.044-4.905.8-5.589-1.369s-.454-10.138.571-12.08,4.438-3.076,6.039-2.389,5.905,5.262,3.525,13.117C472.979,104.035,471.037,106.494,468.433,106.756Z" transform="translate(-462.45 -90.718)" fill="#fe7a42"/>
          </g>
          <g id="Group_445" data-name="Group 445">
            <path id="Path_199" data-name="Path 199" d="M462.448,94.111s.4,2.737,2.336,2.509,5.244-.8,5.583.682-1.048,6.509,0,7.753,3.649,2.735,4.216.908,1.707-13.1-4.216-15.725C470.367,90.238,464.459,88.984,462.448,94.111Z" transform="translate(-462.448 -90.102)" fill="#171b23"/>
          </g>
        </g>
      </g>
      <g id="Group_451" data-name="Group 451" transform="translate(175.981 299.848)">
        <g id="Group_448" data-name="Group 448" transform="translate(0 7.447)">
          <path id="Path_200" data-name="Path 200" d="M346.238,201.045h0Z" transform="translate(-346.238 -199.893)" fill="#585af9"/>
          <rect id="Rectangle_214" data-name="Rectangle 214" width="142.951" height="2.304" transform="translate(0.001)" fill="#fff"/>
        </g>
        <g id="Group_449" data-name="Group 449" transform="translate(6.337)">
          <rect id="Rectangle_215" data-name="Rectangle 215" width="13.019" height="17.815" fill="#fd9697"/>
        </g>
        <g id="Group_450" data-name="Group 450" transform="translate(37.877 3.207)">
          <rect id="Rectangle_216" data-name="Rectangle 216" width="52.763" height="14.608" fill="#fd9697"/>
        </g>
      </g>
    </g>
  </g>
</svg>
