<svg xmlns="http://www.w3.org/2000/svg" xmlns:xlink="http://www.w3.org/1999/xlink" width="481.26" height="418.143" viewBox="0 0 481.26 418.143">
  <defs>
    <clipPath id="clip-path">
      <rect id="Rectangle_82" data-name="Rectangle 82" width="370" height="284.883" fill="#e6c4c7"/>
    </clipPath>
  </defs>
  <g id="Offer_1" data-name="Offer 1" transform="translate(44.63 66.63)">
    <g id="bg" transform="translate(17)">
      <rect id="Rectangle_81" data-name="Rectangle 81" width="348" height="284.883" transform="translate(5)" fill="#5f5982" opacity="0.158"/>
      <rect id="Rectangle_84" data-name="Rectangle 84" width="353" height="284.883" fill="#fff"/>
      <path id="Path_65" data-name="Path 65" d="M10576.322,2956.035s79.759,34.561,163.025-4.494,131.8-45.324,176.233-27.2c13.33,5.438,14.741,6.381,14.741,6.381v159.393l-354-.333Z" transform="translate(-10575.93 -2805.117)" fill="#e2eef1"/>
    </g>
    <g id="Total_Offer" data-name="Total Offer" transform="translate(0 174.883)">
      <path id="Path_66" data-name="Path 66" d="M5,0H152a5,5,0,0,1,5,5V87a5,5,0,0,1-5,5H5a5,5,0,0,1-5-5V5A5,5,0,0,1,5,0Z" fill="#64929f"/>
    </g>
  </g>
</svg>
