<svg xmlns="http://www.w3.org/2000/svg" xmlns:xlink="http://www.w3.org/1999/xlink" width="350" height="251" viewBox="0 0 350 251">
  <defs>
    <clipPath id="clip-path">
      <rect width="109" height="251" fill="none"/>
    </clipPath>
  </defs>
  <g id="Pattern" transform="translate(-1570 -274)">
    <g id="Pattern-2" data-name="Pattern" transform="translate(1811 274)">
      <g id="Repeat_Grid_1" data-name="Repeat Grid 1" clip-path="url(#clip-path)">
        <g transform="translate(-1801 -93)">
          <circle id="Ellipse_1" data-name="Ellipse 1" cx="4" cy="4" r="4" transform="translate(1801 93)" fill="#f8dbd4"/>
        </g>
        <g transform="translate(-1753 -93)">
          <circle id="Ellipse_1-2" data-name="Ellipse 1" cx="4" cy="4" r="4" transform="translate(1801 93)" fill="#f8dbd4"/>
        </g>
        <g transform="translate(-1705 -93)">
          <circle id="Ellipse_1-3" data-name="Ellipse 1" cx="4" cy="4" r="4" transform="translate(1801 93)" fill="#f8dbd4"/>
        </g>
        <g transform="translate(-1801 -45)">
          <circle id="Ellipse_1-4" data-name="Ellipse 1" cx="4" cy="4" r="4" transform="translate(1801 93)" fill="#f8dbd4"/>
        </g>
        <g transform="translate(-1753 -45)">
          <circle id="Ellipse_1-5" data-name="Ellipse 1" cx="4" cy="4" r="4" transform="translate(1801 93)" fill="#f8dbd4"/>
        </g>
        <g transform="translate(-1705 -45)">
          <circle id="Ellipse_1-6" data-name="Ellipse 1" cx="4" cy="4" r="4" transform="translate(1801 93)" fill="#f8dbd4"/>
        </g>
        <g transform="translate(-1801 3)">
          <circle id="Ellipse_1-7" data-name="Ellipse 1" cx="4" cy="4" r="4" transform="translate(1801 93)" fill="#f8dbd4"/>
        </g>
        <g transform="translate(-1753 3)">
          <circle id="Ellipse_1-8" data-name="Ellipse 1" cx="4" cy="4" r="4" transform="translate(1801 93)" fill="#f8dbd4"/>
        </g>
        <g transform="translate(-1705 3)">
          <circle id="Ellipse_1-9" data-name="Ellipse 1" cx="4" cy="4" r="4" transform="translate(1801 93)" fill="#f8dbd4"/>
        </g>
        <g transform="translate(-1801 51)">
          <circle id="Ellipse_1-10" data-name="Ellipse 1" cx="4" cy="4" r="4" transform="translate(1801 93)" fill="#f8dbd4"/>
        </g>
        <g transform="translate(-1753 51)">
          <circle id="Ellipse_1-11" data-name="Ellipse 1" cx="4" cy="4" r="4" transform="translate(1801 93)" fill="#f8dbd4"/>
        </g>
        <g transform="translate(-1705 51)">
          <circle id="Ellipse_1-12" data-name="Ellipse 1" cx="4" cy="4" r="4" transform="translate(1801 93)" fill="#f8dbd4"/>
        </g>
        <g transform="translate(-1801 99)">
          <circle id="Ellipse_1-13" data-name="Ellipse 1" cx="4" cy="4" r="4" transform="translate(1801 93)" fill="#f8dbd4"/>
        </g>
        <g transform="translate(-1753 99)">
          <circle id="Ellipse_1-14" data-name="Ellipse 1" cx="4" cy="4" r="4" transform="translate(1801 93)" fill="#f8dbd4"/>
        </g>
        <g transform="translate(-1705 99)">
          <circle id="Ellipse_1-15" data-name="Ellipse 1" cx="4" cy="4" r="4" transform="translate(1801 93)" fill="#f8dbd4"/>
        </g>
        <g transform="translate(-1801 147)">
          <circle id="Ellipse_1-16" data-name="Ellipse 1" cx="4" cy="4" r="4" transform="translate(1801 93)" fill="#f8dbd4"/>
        </g>
        <g transform="translate(-1753 147)">
          <circle id="Ellipse_1-17" data-name="Ellipse 1" cx="4" cy="4" r="4" transform="translate(1801 93)" fill="#f8dbd4"/>
        </g>
        <g transform="translate(-1705 147)">
          <circle id="Ellipse_1-18" data-name="Ellipse 1" cx="4" cy="4" r="4" transform="translate(1801 93)" fill="#f8dbd4"/>
        </g>
      </g>
    </g>
    <g id="Pattern-3" data-name="Pattern" transform="translate(1691 274)">
      <g id="Repeat_Grid_1-2" data-name="Repeat Grid 1" clip-path="url(#clip-path)">
        <g transform="translate(-1801 -93)">
          <circle id="Ellipse_1-19" data-name="Ellipse 1" cx="4" cy="4" r="4" transform="translate(1801 93)" fill="#f8dbd4"/>
        </g>
        <g transform="translate(-1753 -93)">
          <circle id="Ellipse_1-20" data-name="Ellipse 1" cx="4" cy="4" r="4" transform="translate(1801 93)" fill="#f8dbd4"/>
        </g>
        <g transform="translate(-1705 -93)">
          <circle id="Ellipse_1-21" data-name="Ellipse 1" cx="4" cy="4" r="4" transform="translate(1801 93)" fill="#f8dbd4"/>
        </g>
        <g transform="translate(-1801 -45)">
          <circle id="Ellipse_1-22" data-name="Ellipse 1" cx="4" cy="4" r="4" transform="translate(1801 93)" fill="#f8dbd4"/>
        </g>
        <g transform="translate(-1753 -45)">
          <circle id="Ellipse_1-23" data-name="Ellipse 1" cx="4" cy="4" r="4" transform="translate(1801 93)" fill="#f8dbd4"/>
        </g>
        <g transform="translate(-1705 -45)">
          <circle id="Ellipse_1-24" data-name="Ellipse 1" cx="4" cy="4" r="4" transform="translate(1801 93)" fill="#f8dbd4"/>
        </g>
        <g transform="translate(-1801 3)">
          <circle id="Ellipse_1-25" data-name="Ellipse 1" cx="4" cy="4" r="4" transform="translate(1801 93)" fill="#f8dbd4"/>
        </g>
        <g transform="translate(-1753 3)">
          <circle id="Ellipse_1-26" data-name="Ellipse 1" cx="4" cy="4" r="4" transform="translate(1801 93)" fill="#f8dbd4"/>
        </g>
        <g transform="translate(-1705 3)">
          <circle id="Ellipse_1-27" data-name="Ellipse 1" cx="4" cy="4" r="4" transform="translate(1801 93)" fill="#f8dbd4"/>
        </g>
        <g transform="translate(-1801 51)">
          <circle id="Ellipse_1-28" data-name="Ellipse 1" cx="4" cy="4" r="4" transform="translate(1801 93)" fill="#f8dbd4"/>
        </g>
        <g transform="translate(-1753 51)">
          <circle id="Ellipse_1-29" data-name="Ellipse 1" cx="4" cy="4" r="4" transform="translate(1801 93)" fill="#f8dbd4"/>
        </g>
        <g transform="translate(-1705 51)">
          <circle id="Ellipse_1-30" data-name="Ellipse 1" cx="4" cy="4" r="4" transform="translate(1801 93)" fill="#f8dbd4"/>
        </g>
        <g transform="translate(-1801 99)">
          <circle id="Ellipse_1-31" data-name="Ellipse 1" cx="4" cy="4" r="4" transform="translate(1801 93)" fill="#f8dbd4"/>
        </g>
        <g transform="translate(-1753 99)">
          <circle id="Ellipse_1-32" data-name="Ellipse 1" cx="4" cy="4" r="4" transform="translate(1801 93)" fill="#f8dbd4"/>
        </g>
        <g transform="translate(-1705 99)">
          <circle id="Ellipse_1-33" data-name="Ellipse 1" cx="4" cy="4" r="4" transform="translate(1801 93)" fill="#f8dbd4"/>
        </g>
        <g transform="translate(-1801 147)">
          <circle id="Ellipse_1-34" data-name="Ellipse 1" cx="4" cy="4" r="4" transform="translate(1801 93)" fill="#f8dbd4"/>
        </g>
        <g transform="translate(-1753 147)">
          <circle id="Ellipse_1-35" data-name="Ellipse 1" cx="4" cy="4" r="4" transform="translate(1801 93)" fill="#f8dbd4"/>
        </g>
        <g transform="translate(-1705 147)">
          <circle id="Ellipse_1-36" data-name="Ellipse 1" cx="4" cy="4" r="4" transform="translate(1801 93)" fill="#f8dbd4"/>
        </g>
      </g>
    </g>
    <g id="Pattern-4" data-name="Pattern" transform="translate(1570 274)">
      <g id="Repeat_Grid_1-3" data-name="Repeat Grid 1" clip-path="url(#clip-path)">
        <g transform="translate(-1801 -93)">
          <circle id="Ellipse_1-37" data-name="Ellipse 1" cx="4" cy="4" r="4" transform="translate(1801 93)" fill="#f8dbd4"/>
        </g>
        <g transform="translate(-1753 -93)">
          <circle id="Ellipse_1-38" data-name="Ellipse 1" cx="4" cy="4" r="4" transform="translate(1801 93)" fill="#f8dbd4"/>
        </g>
        <g transform="translate(-1705 -93)">
          <circle id="Ellipse_1-39" data-name="Ellipse 1" cx="4" cy="4" r="4" transform="translate(1801 93)" fill="#f8dbd4"/>
        </g>
        <g transform="translate(-1801 -45)">
          <circle id="Ellipse_1-40" data-name="Ellipse 1" cx="4" cy="4" r="4" transform="translate(1801 93)" fill="#f8dbd4"/>
        </g>
        <g transform="translate(-1753 -45)">
          <circle id="Ellipse_1-41" data-name="Ellipse 1" cx="4" cy="4" r="4" transform="translate(1801 93)" fill="#f8dbd4"/>
        </g>
        <g transform="translate(-1705 -45)">
          <circle id="Ellipse_1-42" data-name="Ellipse 1" cx="4" cy="4" r="4" transform="translate(1801 93)" fill="#f8dbd4"/>
        </g>
        <g transform="translate(-1801 3)">
          <circle id="Ellipse_1-43" data-name="Ellipse 1" cx="4" cy="4" r="4" transform="translate(1801 93)" fill="#f8dbd4"/>
        </g>
        <g transform="translate(-1753 3)">
          <circle id="Ellipse_1-44" data-name="Ellipse 1" cx="4" cy="4" r="4" transform="translate(1801 93)" fill="#f8dbd4"/>
        </g>
        <g transform="translate(-1705 3)">
          <circle id="Ellipse_1-45" data-name="Ellipse 1" cx="4" cy="4" r="4" transform="translate(1801 93)" fill="#f8dbd4"/>
        </g>
        <g transform="translate(-1801 51)">
          <circle id="Ellipse_1-46" data-name="Ellipse 1" cx="4" cy="4" r="4" transform="translate(1801 93)" fill="#f8dbd4"/>
        </g>
        <g transform="translate(-1753 51)">
          <circle id="Ellipse_1-47" data-name="Ellipse 1" cx="4" cy="4" r="4" transform="translate(1801 93)" fill="#f8dbd4"/>
        </g>
        <g transform="translate(-1705 51)">
          <circle id="Ellipse_1-48" data-name="Ellipse 1" cx="4" cy="4" r="4" transform="translate(1801 93)" fill="#f8dbd4"/>
        </g>
        <g transform="translate(-1801 99)">
          <circle id="Ellipse_1-49" data-name="Ellipse 1" cx="4" cy="4" r="4" transform="translate(1801 93)" fill="#f8dbd4"/>
        </g>
        <g transform="translate(-1753 99)">
          <circle id="Ellipse_1-50" data-name="Ellipse 1" cx="4" cy="4" r="4" transform="translate(1801 93)" fill="#f8dbd4"/>
        </g>
        <g transform="translate(-1705 99)">
          <circle id="Ellipse_1-51" data-name="Ellipse 1" cx="4" cy="4" r="4" transform="translate(1801 93)" fill="#f8dbd4"/>
        </g>
        <g transform="translate(-1801 147)">
          <circle id="Ellipse_1-52" data-name="Ellipse 1" cx="4" cy="4" r="4" transform="translate(1801 93)" fill="#f8dbd4"/>
        </g>
        <g transform="translate(-1753 147)">
          <circle id="Ellipse_1-53" data-name="Ellipse 1" cx="4" cy="4" r="4" transform="translate(1801 93)" fill="#f8dbd4"/>
        </g>
        <g transform="translate(-1705 147)">
          <circle id="Ellipse_1-54" data-name="Ellipse 1" cx="4" cy="4" r="4" transform="translate(1801 93)" fill="#f8dbd4"/>
        </g>
      </g>
    </g>
  </g>
</svg>
